<svg id="图层_1" data-name="图层 1" xmlns="http://www.w3.org/2000/svg" viewBox="0 0 499.16 501"><defs><style>.cls-1,.cls-2{fill:#fff;}.cls-1,.cls-3,.cls-4{stroke:#231815;stroke-linecap:round;stroke-miterlimit:10;}.cls-3{fill:none;}.cls-4{fill:red;}</style></defs><title>tid</title><rect class="cls-1" x="122.2" y="283.77" width="70.97" height="216.73"/><path class="cls-2" d="M488,255.11V389.43A116.23,116.23,0,0,1,371.72,505.66H371V447.91h.45v0A77.86,77.86,0,0,0,448.83,370V280a77.85,77.85,0,0,0-77.33-77.88v0H371V138.88h.68A116.23,116.23,0,0,1,488,255.11Z" transform="translate(-6.06 -5.27)"/><path class="cls-2" d="M371.49,202.07v0a2.49,2.49,0,0,0-.45,0Z" transform="translate(-6.06 -5.27)"/><path class="cls-2" d="M371,447.91v57.75A116.22,116.22,0,0,1,255.5,389.43V255.11A116.22,116.22,0,0,1,371,138.88v63.18H292.72V447.91H371Z" transform="translate(-6.06 -5.27)"/><path class="cls-2" d="M235.45,138.88H371A116.22,116.22,0,0,0,255.5,255.11V389.43A116.22,116.22,0,0,0,371,505.66H235.45Z" transform="translate(-6.06 -5.27)"/><path class="cls-2" d="M292.72,202.07h78.2A77.9,77.9,0,0,0,293,280v90h-.29Z" transform="translate(-6.06 -5.27)"/><polyline class="cls-3" points="364.98 196.79 365.43 196.79 365.43 196.82"/><polyline class="cls-3" points="364.86 442.64 286.66 442.64 286.66 364.73"/><polyline class="cls-3" points="365.43 442.61 365.43 442.64 364.98 442.64"/><line class="cls-3" x1="364.98" y1="442.64" x2="364.86" y2="442.64"/><path class="cls-3" d="M371,202.07a2.49,2.49,0,0,1,.45,0A77.85,77.85,0,0,1,448.83,280v90a77.86,77.86,0,0,1-77.33,77.88" transform="translate(-6.06 -5.27)"/><path class="cls-3" d="M293,370V280a77.9,77.9,0,0,1,77.9-77.91" transform="translate(-6.06 -5.27)"/><polyline class="cls-3" points="364.98 500.38 229.39 500.38 229.39 133.61 364.98 133.61"/><path class="cls-3" d="M371,138.88h.68A116.23,116.23,0,0,1,488,255.11V389.43A116.23,116.23,0,0,1,371.72,505.66H371" transform="translate(-6.06 -5.27)"/><path class="cls-2" d="M504.73,96.94v49.12a64.35,64.35,0,0,0-62.48-49h0c-.38,0-.77,0-1.14,0v-.12Z" transform="translate(-6.06 -5.27)"/><rect class="cls-2" x="435.03" y="8.63" width="63.63" height="83.03"/><path class="cls-2" d="M504.73,5.79v8.12H441.09v83H109.94q.45-5.22.45-10.61c0-44.09-22.82-79.92-51.16-80.54Z" transform="translate(-6.06 -5.27)"/><path class="cls-2" d="M110.39,86.33q0,5.4-.45,10.61H92.15V85.72H58.55V5.79h.68C87.57,6.41,110.39,42.24,110.39,86.33Z" transform="translate(-6.06 -5.27)"/><path class="cls-2" d="M92.15,147.63v0c-9.05,12-20.81,19.23-33.67,19.23-28.44,0-51.55-35.5-51.9-79.51V85.72h52V96.94H92.15Z" transform="translate(-6.06 -5.27)"/><path class="cls-2" d="M92.15,147.65V503.51H6.57V87.37c.35,44,23.47,79.51,51.9,79.51C71.34,166.88,83.09,159.64,92.15,147.65Z" transform="translate(-6.06 -5.27)"/><rect class="cls-2" x="52.49" y="80.45" width="33.59" height="11.22"/><path class="cls-2" d="M59.15,5.79h-.59V85.72h-52c.2-44.21,23.37-79.95,51.9-79.95C58.7,5.77,58.93,5.77,59.15,5.79Z" transform="translate(-6.06 -5.27)"/><path class="cls-2" d="M6.57,85.72v1.65c0-.35,0-.7,0-1C6.56,86.13,6.56,85.92,6.57,85.72Z" transform="translate(-6.06 -5.27)"/><line class="cls-3" x1="498.66" y1="91.67" x2="498.66" y2="140.79"/><line class="cls-3" x1="435.03" y1="91.79" x2="435.03" y2="91.67"/><path class="cls-3" d="M441.09,97.06c.37,0,.76,0,1.14,0h0a64.35,64.35,0,0,1,62.48,49" transform="translate(-6.06 -5.27)"/><path class="cls-3" d="M6.57,87.37c0-.35,0-.7,0-1,0-.2,0-.41,0-.6.2-44.21,23.37-79.95,51.9-79.95.22,0,.45,0,.67,0" transform="translate(-6.06 -5.27)"/><polyline class="cls-3" points="435.03 91.67 103.88 91.67 86.08 91.67"/><polyline class="cls-3" points="53.17 0.52 498.66 0.52 498.66 8.63 498.66 91.67"/><line class="cls-3" x1="86.08" y1="91.67" x2="86.08" y2="142.36"/><polyline class="cls-3" points="86.08 142.37 86.08 498.23 0.51 498.23 0.51 82.09 0.51 80.45"/><path class="cls-4" d="M128.08,199.1V177.91a36.35,36.35,0,1,1,72.7,0v77.42H128.07V199.1Z" transform="translate(-6.06 -5.27)"/></svg>